<?xml version="1.0" standalone="no"?>
<!DOCTYPE svg PUBLIC "-//W3C//DTD SVG 20010904//EN"
 "http://www.w3.org/TR/2001/REC-SVG-20010904/DTD/svg10.dtd">
<svg version="1.0" xmlns="http://www.w3.org/2000/svg"
 width="667.000000pt" height="374.000000pt" viewBox="0 0 667.000000 374.000000"
 preserveAspectRatio="xMidYMid meet">

<g transform="translate(0.000000,374.000000) scale(0.100000,-0.100000)"
fill="#000000" stroke="none">
<path d="M2797 2524 c-3 -3 -19 -8 -36 -10 -17 -3 -43 -12 -59 -20 -15 -7 -33
-14 -39 -14 -7 0 -13 -4 -13 -8 0 -4 -33 -19 -72 -32 -86 -29 -99 -37 -91 -56
3 -9 0 -14 -7 -12 -17 4 -29 -42 -18 -64 5 -11 5 -18 -1 -18 -5 0 -11 5 -13
11 -2 7 -9 5 -17 -5 -12 -14 -12 -16 0 -11 11 4 14 -2 14 -20 -2 -28 -15 -48
-15 -21 0 9 -4 15 -9 12 -5 -3 -8 -18 -8 -33 0 -16 2 -22 4 -15 3 6 14 12 26
12 11 0 17 -3 14 -7 -4 -3 -2 -12 4 -20 9 -10 8 -13 -4 -13 -8 0 -18 6 -21 13
-3 6 -3 2 0 -10 5 -20 2 -23 -21 -21 -19 2 -27 10 -33 31 l-8 29 -33 -31 c-18
-17 -30 -34 -27 -39 3 -5 -6 -32 -19 -61 -14 -28 -25 -64 -25 -81 0 -16 -4
-30 -10 -30 -5 0 -10 -7 -10 -16 0 -8 5 -12 10 -9 6 3 10 2 10 -4 0 -5 -5 -11
-11 -13 -12 -4 -1 -38 13 -38 6 0 5 7 -2 15 -11 13 -10 14 3 10 9 -4 15 -1 14
7 -1 42 3 49 26 42 12 -4 29 -7 39 -6 19 1 32 -38 18 -52 -10 -10 -14 4 -11
32 2 11 -2 11 -19 2 -12 -6 -19 -14 -16 -17 3 -3 -2 -12 -12 -20 -10 -9 -11
-11 -2 -7 13 7 13 5 1 -9 -7 -9 -21 -17 -30 -17 -14 0 -14 -2 -1 -10 13 -9 13
-10 0 -10 -12 0 -15 -9 -12 -37 6 -52 18 -65 57 -57 24 4 34 2 38 -10 3 -8 2
-18 -3 -21 -19 -11 -10 -44 20 -77 17 -18 30 -38 30 -45 0 -19 -20 -26 -26 -9
-7 17 -34 22 -34 6 0 -5 6 -13 13 -17 17 -10 47 -70 47 -94 0 -27 11 -50 21
-43 6 3 7 -5 4 -19 -6 -23 16 -84 35 -97 4 -3 18 -25 33 -50 46 -79 95 -118
188 -149 80 -27 128 -41 139 -40 3 1 23 -6 45 -15 112 -43 271 -59 324 -32 15
8 40 31 55 51 33 43 102 79 182 96 58 12 62 11 105 -14 25 -15 53 -27 63 -27
22 0 128 37 135 48 3 4 44 28 91 52 47 24 88 48 92 54 4 6 8 25 8 41 1 33 20
65 39 65 7 0 9 5 5 12 -5 7 -3 8 6 3 10 -6 10 -10 -2 -19 -20 -15 -38 -50 -38
-75 0 -17 6 -21 31 -21 40 0 83 31 99 72 7 18 19 47 26 65 19 42 18 46 -8 31
-13 -6 -30 -13 -38 -14 -8 -2 -16 -8 -18 -13 -5 -15 -32 -14 -32 1 0 6 3 9 6
5 4 -3 13 0 21 8 8 8 23 15 33 15 10 0 22 5 26 12 4 7 3 8 -4 4 -7 -4 -12 -1
-12 6 0 8 11 15 25 16 18 1 23 -2 19 -13 -8 -20 3 -19 32 4 l24 19 -23 7 c-13
4 -17 8 -10 11 7 3 21 0 31 -8 18 -12 18 -14 -7 -38 -14 -14 -28 -24 -30 -22
-3 2 -7 -2 -10 -9 -2 -8 1 -9 10 -3 8 4 2 -8 -14 -28 -34 -45 -22 -55 39 -32
34 13 50 26 65 55 21 41 25 79 9 79 -5 0 -10 -4 -10 -10 0 -5 -5 -10 -12 -10
-6 0 -4 7 5 18 13 15 17 39 17 113 1 67 5 100 15 113 20 27 19 39 -4 33 -14
-3 -18 -1 -14 9 3 8 18 14 34 14 19 0 29 5 29 15 0 8 4 15 9 15 5 0 11 9 14
20 4 14 -3 25 -23 37 -20 12 -30 26 -32 47 -3 31 -25 43 -40 21 -5 -6 -8 -4
-8 4 0 11 -4 9 -14 -5 -8 -10 -18 -16 -21 -12 -4 4 -20 1 -36 -8 -16 -8 -29
-12 -29 -9 0 4 -7 0 -15 -9 -20 -19 -19 -27 3 -20 15 5 15 4 -1 -9 -22 -18
-51 -11 -42 11 4 11 2 12 -8 4 -10 -9 -17 -8 -26 1 -11 9 -11 7 0 -10 7 -12
17 -19 21 -17 4 3 8 0 8 -5 0 -10 -21 -16 -42 -12 -5 0 -8 -3 -8 -9 0 -5 -15
-8 -34 -6 -19 1 -33 -1 -30 -5 2 -4 0 -10 -5 -13 -5 -4 -12 -2 -16 4 -3 5 -15
10 -26 10 -11 0 -19 7 -20 18 0 10 -3 12 -6 5 -10 -25 -83 -2 -83 26 0 9 -3
12 -8 6 -12 -16 -39 -16 -46 0 -3 8 -1 15 4 15 6 0 10 5 10 11 0 5 -4 8 -9 4
-5 -3 -12 -1 -15 4 -3 4 9 8 26 7 21 -1 32 4 33 15 3 14 -15 19 -96 22 -10 1
-15 7 -11 16 3 8 1 12 -5 8 -6 -4 -13 0 -17 8 -7 20 3 19 26 -2 14 -13 18 -13
18 -2 1 10 4 9 11 -4 8 -13 14 -15 30 -7 14 8 19 7 19 -2 0 -8 3 -9 8 -3 12
17 69 17 86 -1 11 -11 16 -12 16 -3 0 10 3 10 12 1 16 -16 28 -15 28 3 0 9 -9
15 -23 15 -13 0 -27 3 -31 8 -4 4 -15 7 -24 8 -66 2 -114 32 -87 54 13 10 13
15 1 32 -8 11 -12 28 -9 37 4 13 3 14 -5 2 -9 -12 -16 -13 -36 -3 -21 9 -27 9
-34 -4 -8 -15 -10 -15 -15 0 -4 10 -12 13 -23 9 -13 -5 -16 -2 -12 8 4 9 -2
20 -13 27 -10 7 -19 20 -20 30 0 14 -2 14 -9 -3 -7 -16 -9 -17 -9 -3 -1 9 -6
20 -12 24 -8 4 -9 -1 -4 -17 7 -21 6 -22 -8 -11 -16 14 -57 8 -57 -8 0 -16 22
-23 30 -10 5 8 15 10 26 5 11 -4 27 -9 36 -10 25 -2 34 -14 12 -14 -11 -1 -36
-2 -57 -4 -26 -2 -41 2 -47 13 -5 8 -10 10 -10 3 0 -15 53 -53 74 -53 9 0 13
6 10 14 -8 20 21 27 43 11 15 -13 16 -16 3 -24 -8 -5 -19 -7 -25 -4 -5 4 -6 2
-2 -3 12 -13 30 -12 46 4 11 11 15 11 22 1 4 -8 11 -10 15 -6 4 4 13 2 21 -4
9 -9 13 -8 13 0 0 18 37 13 45 -6 7 -20 4 -29 -8 -25 -5 1 -5 -3 -1 -9 4 -8
-3 -9 -27 -4 -32 7 -33 6 -14 -8 11 -8 23 -13 27 -11 5 3 8 0 8 -5 0 -6 -18
-11 -40 -11 -34 0 -40 3 -40 21 0 19 -4 21 -39 15 -26 -4 -42 -2 -47 6 -5 7
-2 9 9 5 11 -4 14 -2 11 8 -7 18 -39 11 -38 -9 3 -26 -10 -19 -25 15 -10 23
-16 28 -22 18 -6 -10 -9 -8 -9 8 0 16 -5 20 -20 16 -11 -3 -20 0 -20 6 0 6 4
11 9 11 5 0 11 9 14 20 3 14 -1 24 -15 31 -12 6 -18 18 -15 28 2 10 -1 18 -8
18 -7 0 -11 -6 -8 -14 3 -7 0 -13 -7 -13 -6 0 -8 -4 -5 -10 4 -6 -1 -7 -10 -3
-10 3 -20 1 -24 -5 -4 -7 -13 -6 -30 2 -19 11 -21 14 -7 19 9 4 16 2 16 -3 0
-6 5 -10 11 -10 5 0 7 5 3 12 -5 8 0 9 14 6 12 -4 22 -2 22 3 0 5 -7 9 -16 9
-8 0 -12 5 -9 11 4 6 9 8 12 5 10 -9 63 24 63 39 0 8 5 15 10 15 6 0 10 -4 10
-10 0 -5 5 -10 11 -10 6 0 9 9 6 20 -3 11 -1 20 4 20 5 0 9 -6 9 -12 0 -9 3
-10 8 -2 4 6 37 11 73 11 41 1 78 7 98 18 31 15 34 15 52 -1 11 -9 21 -15 24
-12 3 3 -1 11 -10 18 -20 17 -19 27 5 33 11 3 18 1 14 -4 -3 -5 -1 -9 5 -9 5
0 12 -8 14 -17 4 -14 5 -13 6 3 1 17 9 23 36 26 41 5 61 -4 50 -22 -5 -8 -20
-10 -41 -7 -19 3 -34 2 -34 -3 0 -12 59 -30 65 -20 3 4 13 6 23 4 10 -3 22 3
30 16 7 12 8 20 2 20 -5 0 -10 -4 -10 -10 0 -18 -20 -11 -20 8 -1 11 -20 25
-53 41 -29 13 -74 34 -101 48 -45 23 -62 25 -193 27 -139 3 -144 2 -141 -17 2
-11 10 -23 18 -25 13 -5 13 -3 1 11 -9 12 -10 17 -2 17 18 0 26 -31 10 -41
-21 -13 -29 -11 -29 9 -1 15 -2 15 -15 -2 -8 -11 -15 -15 -15 -9 0 7 5 15 11
18 7 5 4 14 -7 27 -15 16 -27 18 -76 14 -72 -6 -77 -9 -73 -45 3 -24 0 -28
-20 -28 -14 0 -22 3 -20 8 3 4 -8 4 -24 -1 -22 -6 -31 -5 -35 6 -5 14 -34 28
-80 40 -16 4 -25 0 -30 -11 -3 -9 -2 -13 4 -10 6 3 10 1 10 -5 0 -6 -8 -10
-17 -8 -10 2 -17 10 -15 16 1 7 -4 12 -10 12 -7 0 -23 3 -35 6 -14 4 -23 2
-23 -5 0 -7 5 -9 10 -6 14 9 12 -19 -2 -33 -9 -9 -6 -12 14 -10 15 1 24 6 22
10 -3 5 -10 5 -16 2 -7 -4 -8 -2 -4 4 8 14 36 4 36 -13 0 -16 -57 -28 -79 -15
-12 6 -22 5 -31 -3 -10 -10 -12 -9 -7 4 4 13 1 16 -16 12 -20 -5 -21 -4 -5 8
10 8 20 28 24 44 5 28 4 30 -29 32 -20 1 -37 -1 -40 -3z m707 -40 c-15 -22
-15 -27 -3 -34 7 -5 11 -11 8 -14 -3 -3 -17 8 -33 24 -27 29 -24 43 3 18 11
-11 12 -9 6 10 -5 18 -2 22 15 22 20 0 20 -1 4 -26z m-670 1 c11 -8 16 -15 10
-15 -5 0 -18 7 -28 15 -11 8 -16 15 -10 15 5 0 18 -7 28 -15z m266 -33 c-7 -3
-19 3 -28 13 -16 15 -15 16 12 4 15 -7 23 -15 16 -17z m2 -92 c9 0 31 -7 49
-15 l34 -14 -42 -1 c-25 0 -43 5 -43 11 0 6 -8 9 -19 6 -14 -3 -18 1 -18 21 0
23 1 24 12 9 7 -9 19 -17 27 -17z m-552 5 c0 -8 -4 -15 -10 -15 -5 0 -7 7 -4
15 4 8 8 15 10 15 2 0 4 -7 4 -15z m160 5 c0 -5 -10 -10 -22 -9 -22 0 -22 1
-3 9 11 5 21 9 23 9 1 1 2 -3 2 -9z m670 0 c0 -5 -2 -10 -4 -10 -3 0 -8 5 -11
10 -3 6 -1 10 4 10 6 0 11 -4 11 -10z m-20 -30 c0 -14 -28 -1 -34 16 -4 12 -2
12 14 4 11 -6 20 -15 20 -20z m-603 3 c-4 -3 -1 -13 6 -22 11 -14 10 -14 -5
-2 -16 12 -16 31 -1 31 4 0 3 -3 0 -7z m203 -3 c0 -5 -8 -10 -17 -10 -15 0
-16 2 -3 10 19 12 20 12 20 0z m257 -6 c-3 -3 -12 -4 -19 -1 -8 3 -5 6 6 6 11
1 17 -2 13 -5z m-100 -54 c38 0 25 -6 -26 -13 -25 -3 -39 -2 -32 3 9 5 3 11
-22 19 -19 7 -41 19 -47 26 -8 10 9 6 44 -10 31 -14 68 -25 83 -25z m297 35
c-4 -8 -12 -15 -20 -15 -8 0 -11 6 -8 15 4 8 12 15 20 15 8 0 11 -6 8 -15z
m-923 -12 c13 -16 12 -17 -3 -4 -10 7 -18 15 -18 17 0 8 8 3 21 -13z m324 -9
c30 -32 30 -34 5 -27 -11 3 -20 12 -20 19 0 8 -4 14 -10 14 -5 0 -10 5 -10 10
0 16 9 12 35 -16z m545 10 c0 -2 -9 -4 -21 -4 -11 0 -18 4 -14 10 5 8 35 3 35
-6z m-880 -28 c0 -11 -19 -15 -25 -6 -3 5 1 10 9 10 9 0 16 -2 16 -4z m93 -34
c0 -12 3 -19 6 -17 2 3 15 -2 29 -11 23 -15 58 -12 48 4 -3 5 7 7 22 4 24 -5
24 -6 7 -13 -18 -7 -17 -8 5 -8 20 -1 22 -3 10 -11 -9 -6 -18 -6 -24 0 -15 15
-23 12 -29 -10 -5 -20 3 -26 16 -13 14 14 56 11 68 -5 11 -14 11 -15 -1 -4
-19 16 -33 15 -27 -2 4 -11 0 -13 -16 -10 -11 2 -25 -2 -29 -9 -6 -9 -8 -9 -8
1 0 7 -4 11 -9 7 -5 -3 -12 4 -16 15 -4 11 -11 18 -16 15 -12 -8 20 -55 37
-55 17 0 18 -16 2 -26 -7 -5 -8 -3 -3 6 6 10 3 12 -13 8 -12 -4 -20 -3 -17 2
3 4 -4 19 -15 31 -11 13 -19 19 -20 12 0 -6 5 -15 10 -18 6 -3 10 -11 10 -17
0 -6 -9 1 -20 15 -11 14 -20 31 -20 37 0 10 -3 10 -15 0 -19 -16 -19 -4 0 50
8 23 12 47 8 54 -4 8 -3 8 6 0 7 -6 13 -20 14 -32z m312 -2 c7 -24 7 -24 -9
-5 -8 11 -16 27 -16 35 0 20 16 1 25 -30z m-220 20 c3 -5 1 -10 -4 -10 -6 0
-11 5 -11 10 0 6 2 10 4 10 3 0 8 -4 11 -10z m298 -15 c13 -19 15 -30 8 -43
-6 -9 -11 -12 -11 -7 0 6 -5 3 -10 -5 -12 -19 -32 -1 -37 32 -2 20 -1 21 8 6
12 -22 25 -23 33 -2 4 9 2 13 -5 8 -6 -4 -15 0 -20 7 -23 37 8 40 34 4z m-341
-3 c-7 -2 -9 -8 -6 -14 4 -5 -4 -4 -17 3 -23 12 -23 12 -4 19 11 4 24 5 30 2
5 -3 4 -7 -3 -10z m185 -16 c-6 -13 -17 -21 -25 -19 -9 4 -7 9 8 20 11 8 17
19 14 25 -4 6 -2 8 4 5 7 -5 7 -14 -1 -31z m196 16 c15 -16 15 -19 2 -19 -8 0
-13 3 -10 5 3 3 0 11 -6 19 -17 20 -5 16 14 -5z m-170 -42 c9 -11 13 -20 7
-20 -5 0 -14 9 -20 20 -6 11 -9 20 -8 20 2 0 11 -9 21 -20z m67 0 c0 -5 -2
-10 -4 -10 -3 0 -8 5 -11 10 -3 6 -1 10 4 10 6 0 11 -4 11 -10z m516 -17 c-7
-7 -26 7 -26 19 0 6 6 6 15 -2 9 -7 13 -15 11 -17z m-12 -32 c-3 -3 -10 2 -15
12 -6 9 -17 17 -25 17 -8 0 -12 5 -9 11 5 7 16 2 31 -12 13 -12 21 -25 18 -28z
m-434 19 c0 -5 -5 -10 -11 -10 -5 0 -7 5 -4 10 3 6 8 10 11 10 2 0 4 -4 4 -10z
m-557 -30 c20 -18 -13 -18 -34 1 l-24 20 25 -7 c14 -3 29 -10 33 -14z m507 -2
c0 15 30 16 30 1 0 -5 -5 -7 -10 -4 -6 3 -13 -1 -16 -9 -3 -9 -10 -13 -15 -10
-5 3 -12 -2 -15 -10 -5 -13 -8 -14 -20 -1 -8 8 -21 12 -29 9 -8 -4 -15 -2 -15
3 0 15 12 23 24 16 6 -4 18 -9 28 -10 12 -2 15 3 11 20 -5 22 -5 22 10 2 9
-11 17 -15 17 -7z m-400 -14 c0 -8 -5 -12 -10 -9 -6 4 -8 11 -5 16 9 14 15 11
15 -7z m21 -22 c-5 -9 -10 -21 -11 -27 -4 -20 -7 -15 -5 7 1 13 3 29 4 36 0 7
6 10 11 7 6 -4 7 -13 1 -23z m172 22 c9 -9 -4 -35 -14 -28 -5 3 -9 12 -9 20 0
14 12 19 23 8z m327 2 c0 -2 -7 -7 -16 -10 -8 -3 -12 -2 -9 4 6 10 25 14 25 6z
m-630 -60 c0 -6 -9 0 -20 12 -11 12 -20 27 -20 34 0 14 39 -31 40 -46z m327
32 c-3 -8 -6 -5 -6 6 -1 11 2 17 5 13 3 -3 4 -12 1 -19z m231 -9 c-3 -8 -7 -3
-11 10 -4 17 -3 21 5 13 5 -5 8 -16 6 -23z m-167 -2 c-10 -9 -11 -8 -5 6 3 10
9 15 12 12 3 -3 0 -11 -7 -18z m664 13 c3 -5 1 -10 -4 -10 -6 0 -11 5 -11 10
0 6 2 10 4 10 3 0 8 -4 11 -10z m-889 -34 c1 -16 -6 -31 -17 -36 -28 -15 -31
-12 -9 10 22 22 26 45 10 53 -6 3 -5 4 2 3 7 -1 13 -15 14 -30z m104 20 c0 -3
-4 -8 -10 -11 -5 -3 -10 -1 -10 4 0 6 5 11 10 11 6 0 10 -2 10 -4z m173 -26
c-3 -11 -9 -20 -14 -20 -10 0 -11 12 -3 34 9 22 23 10 17 -14z m537 -13 c0 -4
-7 -2 -15 7 -8 8 -15 21 -15 28 1 14 30 -20 30 -35z m-653 11 c-3 -8 -6 -5 -6
6 -1 11 2 17 5 13 3 -3 4 -12 1 -19z m66 9 c4 3 7 4 7 1 0 -3 -6 -11 -14 -17
-11 -9 -15 -7 -19 9 -4 16 -2 19 7 11 7 -6 16 -8 19 -4z m87 3 c0 -5 -5 -10
-11 -10 -5 0 -7 5 -4 10 3 6 8 10 11 10 2 0 4 -4 4 -10z m174 2 c3 -5 -1 -9
-9 -9 -8 0 -12 4 -9 9 3 4 7 8 9 8 2 0 6 -4 9 -8z m-350 -10 c2 -4 -4 -8 -14
-8 -10 0 -16 4 -14 8 3 4 9 8 14 8 5 0 11 -4 14 -8z m446 -14 c0 -6 -6 -5 -15
2 -8 7 -15 14 -15 16 0 2 7 1 15 -2 8 -4 15 -11 15 -16z m200 -8 c13 -25 13
-25 -8 -6 -12 10 -19 23 -16 28 7 11 7 11 24 -22z m140 20 c8 -5 11 -10 5 -10
-5 0 -17 5 -25 10 -8 5 -10 10 -5 10 6 0 17 -5 25 -10z m59 -30 c6 0 11 -4 11
-9 0 -5 8 -11 18 -13 10 -3 4 -6 -15 -9 -27 -5 -33 -2 -33 12 0 10 -4 21 -10
24 -5 3 -10 12 -10 18 0 7 7 4 14 -5 7 -10 18 -18 25 -18z m-565 4 c3 -8 2
-12 -4 -9 -6 3 -10 10 -10 16 0 14 7 11 14 -7z m29 -14 c-7 -28 -13 -25 -13 6
0 14 4 23 9 20 5 -3 7 -15 4 -26z m42 -43 c1 -70 0 -71 -11 -32 -9 32 -12 36
-17 20 -3 -11 -3 0 0 25 3 25 11 48 17 52 6 4 11 8 11 8 0 0 0 -33 0 -73z
m-443 44 c-4 -10 -7 -11 -10 -3 -2 7 -9 9 -14 6 -6 -4 -8 -3 -5 3 10 16 36 11
29 -6z m508 -20 c7 -18 17 -28 25 -25 7 3 16 0 20 -5 3 -6 10 -9 15 -6 5 3 12
0 16 -6 4 -7 3 -9 -4 -5 -5 3 -13 0 -16 -6 -5 -10 -7 -10 -12 0 -3 6 -16 12
-29 12 -13 0 -30 9 -38 20 -8 11 -17 17 -20 13 -4 -3 -7 3 -7 15 0 34 35 28
50 -7z m21 12 c13 -16 12 -17 -3 -4 -17 13 -22 21 -14 21 2 0 10 -8 17 -17z
m209 -20 c0 -8 -5 -11 -12 -7 -7 5 -9 2 -5 -9 3 -8 0 -20 -7 -26 -10 -9 -13
-5 -12 19 1 17 6 30 14 30 7 0 10 5 7 10 -4 6 -11 7 -17 4 -7 -4 -8 -2 -4 5
10 15 36 -4 36 -26z m75 25 c5 4 5 1 1 -5 -10 -18 -23 -16 -30 3 -5 13 -4 14
7 6 8 -7 18 -8 22 -4z m-840 -19 c4 -5 3 -9 -2 -10 -4 0 -19 -2 -33 -4 -14 -2
-19 -1 -12 1 6 3 10 9 8 13 -3 4 4 7 14 8 11 1 22 -2 25 -8z m312 4 c-4 -3 -2
-12 4 -20 8 -9 8 -13 1 -13 -6 0 -14 5 -17 10 -6 10 2 30 12 30 4 0 3 -3 0 -7z
m113 -29 c0 -8 -19 -13 -24 -6 -3 5 1 9 9 9 8 0 15 -2 15 -3z m119 -31 c15 3
27 -3 40 -21 l20 -27 -6 25 c-6 23 -5 24 13 10 10 -8 21 -15 22 -16 6 -4 -58
-35 -79 -39 -15 -3 -19 2 -19 26 0 16 -4 30 -10 30 -5 1 -15 2 -21 3 -7 0 -16
12 -21 26 l-9 24 25 -23 c16 -15 32 -22 45 -18z m511 16 c0 -5 14 -9 32 -9 17
0 28 -3 25 -7 -4 -3 -2 -12 4 -20 8 -8 -4 -6 -32 6 -24 11 -46 18 -51 15 -4
-2 -12 4 -17 14 -9 17 -7 18 14 14 14 -2 25 -8 25 -13z m-1063 -56 c1 -65 -6
-84 -36 -91 -11 -2 -12 0 -3 10 6 8 12 44 13 81 3 89 23 90 26 0z m1649 40
c-7 -7 -26 7 -26 19 0 6 6 6 15 -2 9 -7 13 -15 11 -17z m-996 7 c0 -5 -2 -10
-4 -10 -3 0 -8 5 -11 10 -3 6 -1 10 4 10 6 0 11 -4 11 -10z m-894 -50 c0 -12
-4 -16 -9 -11 -5 5 -6 14 -3 20 10 15 12 14 12 -9z m1265 -5 c23 -9 28 -14 15
-15 -19 0 -18 -1 2 -23 27 -29 28 -37 1 -30 -11 3 -16 9 -11 12 12 7 -14 42
-43 59 -29 16 -3 15 36 -3z m-547 -9 c9 3 16 2 17 -2 0 -5 2 -17 4 -26 2 -10
-1 -18 -6 -18 -5 0 -9 9 -9 20 0 14 -5 18 -17 13 -11 -4 -12 -8 -5 -11 17 -5
15 -19 -2 -19 -8 0 -13 8 -11 19 2 10 0 18 -6 18 -5 0 -9 5 -9 11 0 8 4 8 14
0 7 -6 21 -9 30 -5z m-651 -39 c-4 -19 -3 -20 7 -4 16 25 35 21 38 -8 1 -14
-3 -25 -8 -25 -6 0 -10 -7 -10 -15 0 -16 -15 -21 -23 -7 -2 4 -2 2 -1 -5 2 -6
-2 -14 -9 -17 -7 -2 -3 -5 8 -5 17 -1 17 -3 5 -11 -23 -15 -28 -12 -25 15 2
19 -1 23 -10 15 -18 -15 -25 -1 -13 26 8 18 14 21 20 12 5 -9 8 -3 9 17 1 17
1 34 0 38 -1 5 3 6 8 3 5 -3 7 -16 4 -29z m44 27 c-3 -3 -12 -4 -19 -1 -8 3
-5 6 6 6 11 1 17 -2 13 -5z m1307 -11 c22 -5 27 -3 21 7 -5 9 -4 11 4 6 6 -4
10 -10 7 -14 -2 -4 5 -16 15 -26 11 -11 19 -14 19 -8 0 7 9 3 20 -8 11 -11 26
-20 33 -20 6 1 1 7 -13 15 -30 17 -11 20 25 3 18 -8 22 -14 13 -20 -10 -6 -8
-8 5 -8 21 0 22 -16 1 -24 -8 -3 -12 -2 -9 4 3 5 -14 15 -37 21 -42 13 -92 39
-73 39 12 0 -16 20 -28 20 -5 0 -5 -4 -2 -10 3 -5 -1 -10 -10 -10 -11 0 -15 5
-11 15 3 9 0 15 -10 15 -8 0 -13 -4 -10 -9 4 -5 -4 -7 -16 -3 -14 3 -17 7 -9
10 11 4 11 6 0 14 -10 7 -7 8 11 4 14 -4 38 -9 54 -13z m271 7 c-3 -5 -12 -10
-18 -10 -7 0 -6 4 3 10 19 12 23 12 15 0z m-811 -8 c2 -4 -4 -9 -15 -9 -11 -1
-17 2 -14 8 7 11 22 12 29 1z m-308 -49 c-3 -4 -6 -1 -6 5 0 7 -9 12 -20 12
-11 0 -20 5 -20 11 0 5 5 7 10 4 6 -3 10 0 10 7 0 7 7 2 16 -10 9 -13 13 -26
10 -29z m30 19 c-4 -3 -14 2 -24 12 -16 18 -16 18 6 6 13 -6 21 -14 18 -18z
m204 24 c0 -3 -4 -8 -10 -11 -5 -3 -10 -1 -10 4 0 6 5 11 10 11 6 0 10 -2 10
-4z m130 -43 c0 -4 -5 -2 -12 5 -8 8 -17 8 -30 1 -20 -11 -22 5 -3 27 8 9 14
7 28 -7 9 -10 17 -22 17 -26z m620 32 c16 -19 0 -19 -26 0 -16 12 -16 14 -3
15 9 0 22 -7 29 -15z m92 3 c-5 -5 -19 -4 -33 1 -23 10 -22 10 8 8 18 0 29 -5
25 -9z m-1622 -8 c0 -5 -5 -10 -11 -10 -5 0 -7 5 -4 10 3 6 8 10 11 10 2 0 4
-4 4 -10z m843 -22 c4 -15 11 -19 27 -15 15 4 24 -2 35 -23 8 -15 13 -29 12
-31 -1 -2 4 3 12 11 12 13 13 13 8 0 -2 -9 2 -29 9 -45 8 -17 12 -22 10 -13
-3 9 2 19 10 22 9 3 16 -3 20 -19 3 -13 11 -23 17 -22 6 1 11 -3 12 -10 0 -6
4 -15 9 -20 5 -5 6 -2 1 6 -5 9 -3 12 6 9 8 -3 13 -11 11 -17 -1 -7 2 -10 8
-6 7 4 7 12 0 26 -6 11 -15 17 -20 14 -4 -3 -6 5 -2 17 5 21 4 22 -14 8 -18
-14 -18 -14 -5 3 13 17 16 17 26 3 7 -9 16 -12 20 -8 5 4 5 1 1 -6 -5 -8 -1
-21 9 -32 16 -17 15 -19 -3 -29 -36 -19 -73 -10 -79 20 -4 20 -10 25 -24 22
-12 -4 -19 0 -19 10 0 19 -26 41 -34 28 -8 -13 -36 -7 -47 10 -5 8 -9 10 -9 5
0 -6 -7 -1 -15 10 -9 12 -13 32 -10 54 4 27 3 30 -4 15 -9 -18 -10 -18 -10 -2
-1 10 -5 16 -10 12 -5 -3 -13 0 -17 6 -4 8 -3 9 4 5 7 -4 12 -3 12 2 0 18 38
0 43 -20z m-91 -3 c3 -13 1 -22 -3 -19 -9 5 -13 44 -5 44 2 0 6 -11 8 -25z
m618 -6 c0 -3 6 -6 13 -7 50 -4 64 -7 80 -18 23 -15 5 -29 -20 -16 -10 5 -24
7 -31 4 -18 -6 -63 18 -56 30 3 4 -2 11 -10 14 -9 3 -16 10 -16 15 0 5 9 4 20
-3 11 -7 20 -15 20 -19z m258 6 c-6 -14 -17 -24 -24 -21 -6 2 -18 -1 -25 -7
-11 -10 -11 -9 -1 4 6 9 8 20 4 25 -4 4 1 2 11 -5 15 -12 17 -12 11 4 -5 12
-4 16 4 11 6 -3 13 -2 17 4 12 20 14 10 3 -15z m-986 -3 c-7 -2 -10 -8 -7 -13
4 -5 -1 -6 -9 -3 -12 5 -13 9 -3 19 7 7 16 10 22 7 5 -3 4 -7 -3 -10z m87 2
c3 -4 -2 -4 -11 -1 -10 4 -18 2 -18 -3 0 -6 7 -10 15 -10 8 0 15 -4 15 -9 0
-5 3 -18 7 -28 4 -10 -7 -2 -25 18 -18 20 -32 39 -32 42 0 8 41 0 49 -9z
m-158 -27 c-10 -9 -11 -8 -5 6 3 10 9 15 12 12 3 -3 0 -11 -7 -18z m93 4 c3
-5 -1 -11 -9 -14 -9 -4 -12 -1 -8 9 6 16 10 17 17 5z m-204 -25 c0 -8 -7 -16
-15 -20 -12 -4 -13 -2 -2 14 14 24 17 25 17 6z m827 -23 c-4 -3 -2 -12 4 -20
9 -10 8 -13 -4 -13 -9 0 -19 5 -22 10 -8 12 2 30 17 30 6 0 8 -3 5 -7z m73 -3
c0 -5 -2 -10 -4 -10 -3 0 -8 5 -11 10 -3 6 -1 10 4 10 6 0 11 -4 11 -10z
m-174 -28 c-18 -16 -18 -16 -6 6 6 13 14 21 18 18 3 -4 -2 -14 -12 -24z m59
19 c3 -5 1 -12 -5 -16 -5 -3 -10 1 -10 9 0 18 6 21 15 7z m240 -2 c11 -17 -1
-21 -15 -4 -8 9 -8 15 -2 15 6 0 14 -5 17 -11z m-685 -34 l24 -25 -22 3 c-28
4 -46 22 -38 36 9 15 9 15 36 -14z m531 -2 c13 -16 12 -17 -3 -4 -17 13 -22
21 -14 21 2 0 10 -8 17 -17z m-981 -26 c0 -8 -3 -8 -9 1 -7 11 -9 11 -14 -2
-4 -9 -14 -16 -24 -16 -15 1 -15 4 6 20 23 20 41 19 41 -3z m276 11 c4 -7 3
-8 -4 -4 -7 4 -12 2 -12 -5 0 -7 -3 -10 -6 -6 -6 5 3 27 11 27 2 0 7 -5 11
-12z m1039 -8 c-3 -5 -1 -10 4 -10 6 0 11 5 11 10 0 6 4 10 10 10 6 0 5 -11
-2 -26 -7 -15 -14 -21 -16 -15 -2 6 -8 9 -13 5 -5 -3 -9 4 -9 15 0 12 5 21 11
21 5 0 7 -4 4 -10z m-1143 -14 c7 4 8 2 4 -5 -9 -13 -26 -5 -25 12 0 9 2 8 6
-1 2 -6 10 -9 15 -6z m732 -2 c4 -10 1 -14 -6 -12 -15 5 -23 28 -10 28 5 0 13
-7 16 -16z m-1088 -30 c-1 -6 -8 -19 -15 -28 -17 -21 2 -21 23 0 9 8 16 12 16
7 0 -5 -6 -15 -12 -22 -11 -10 -10 -11 3 -6 26 10 34 -27 10 -44 -12 -7 -21
-24 -21 -38 0 -21 -3 -22 -20 -13 -15 8 -19 19 -17 43 2 17 -2 44 -10 59 -16
34 -17 65 0 71 16 5 45 -13 43 -29z m388 -18 c-3 -8 -15 -17 -27 -20 -21 -5
-20 -4 3 15 14 10 18 18 10 16 -8 -2 -12 -2 -7 0 4 3 7 14 8 26 0 22 0 22 9
-1 5 -12 7 -28 4 -36z m24 23 c-3 -8 -7 -3 -11 10 -4 17 -3 21 5 13 5 -5 8
-16 6 -23z m277 6 c14 -14 25 -22 25 -18 0 5 9 9 19 9 11 0 17 -5 13 -11 -3
-5 -5 -20 -3 -33 l3 -24 -21 21 c-12 12 -27 21 -33 21 -7 0 -2 -9 12 -20 14
-11 20 -20 14 -20 -19 0 -47 37 -34 45 8 5 5 12 -9 22 -12 8 -21 18 -21 24 0
14 7 11 35 -16z m254 -14 c-13 -11 -28 -20 -34 -20 -5 0 -2 6 7 13 10 7 14 17
10 21 -4 5 -2 5 5 1 6 -3 15 -1 18 5 4 5 9 8 12 5 3 -3 -5 -14 -18 -25z m328
14 c0 -8 -4 -12 -9 -9 -5 3 -6 10 -3 15 9 13 12 11 12 -6z m-39 -46 c1 -25 -3
-29 -16 -24 -9 3 -13 3 -10 -1 4 -4 3 -16 -3 -27 -8 -14 -8 -18 0 -13 17 11
13 -14 -6 -32 -15 -15 -16 -13 -11 30 4 34 30 93 44 98 1 0 1 -14 2 -31z
m-908 8 c0 -8 -7 -14 -15 -14 -11 0 -12 4 -4 14 6 7 13 13 15 13 2 0 4 -6 4
-13z m994 -19 c-3 -4 0 -8 5 -8 6 0 11 -4 11 -10 0 -5 -7 -7 -15 -4 -8 4 -15
18 -15 33 0 20 3 22 9 11 6 -8 7 -18 5 -22z m346 22 c13 -8 12 -10 -4 -10 -19
0 -19 0 -1 -13 30 -23 3 -26 -45 -6 -45 18 -45 18 -12 18 17 1 32 6 32 11 0
13 11 13 30 0z m-1397 -18 c-20 -3 -28 -19 -24 -45 1 -4 -8 -3 -19 3 -11 6
-20 15 -20 20 0 5 -8 7 -17 3 -15 -5 -14 -3 2 10 11 9 21 11 23 6 2 -5 13 -3
24 5 11 8 28 11 37 8 13 -6 12 -7 -6 -10z m-363 -36 c0 -6 -7 -1 -15 10 -8 10
-15 23 -15 28 0 6 7 1 15 -10 8 -10 15 -23 15 -28z m1035 34 c3 -5 -1 -10 -9
-10 -9 0 -16 5 -16 10 0 6 4 10 9 10 6 0 13 -4 16 -10z m335 -10 c0 -5 -5 -10
-11 -10 -5 0 -7 5 -4 10 3 6 8 10 11 10 2 0 4 -4 4 -10z m-1195 -40 c-1 -17
-4 -32 -6 -35 -7 -6 -10 46 -3 56 9 16 12 10 9 -21z m1342 3 c4 -10 1 -19 -6
-21 -8 -3 -6 -8 6 -18 17 -13 17 -13 -2 -13 -11 0 -29 6 -40 15 -19 14 -19 15
3 20 12 4 22 11 22 16 0 6 -7 7 -16 4 -8 -3 -12 -2 -9 4 10 16 35 12 42 -7z
m-180 -35 c-3 -8 -6 -5 -6 6 -1 11 2 17 5 13 3 -3 4 -12 1 -19z m0 -33 c-4 -8
-2 -17 3 -20 13 -8 0 -35 -17 -35 -10 0 -13 6 -9 16 3 9 6 24 6 35 0 10 5 19
11 19 6 0 9 -7 6 -15z m-1256 -25 c5 0 9 -4 9 -10 0 -5 -7 -7 -15 -4 -18 7
-18 4 -4 -33 7 -19 7 -25 0 -18 -12 12 -16 37 -11 75 2 18 4 20 7 8 2 -10 9
-18 14 -18z m1304 20 c3 -5 1 -10 -4 -10 -6 0 -11 5 -11 10 0 6 2 10 4 10 3 0
8 -4 11 -10z m-1263 -27 c-5 -27 -22 -32 -18 -5 2 9 -2 20 -8 24 -6 4 -1 6 10
6 16 -2 19 -7 16 -25z m-101 -26 c-10 -9 -11 -8 -5 6 3 10 9 15 12 12 3 -3 0
-11 -7 -18z m34 -45 c0 -18 -20 -15 -23 4 -3 10 1 15 10 12 7 -3 13 -10 13
-16z m245 -112 c0 -5 -4 -10 -10 -10 -5 0 -10 5 -10 10 0 6 5 10 10 10 6 0 10
-4 10 -10z m180 -54 c0 -3 -4 -8 -10 -11 -5 -3 -10 -1 -10 4 0 6 5 11 10 11 6
0 10 -2 10 -4z"/>
<path d="M3236 1763 c9 -38 14 -42 14 -10 0 14 -5 29 -10 32 -7 4 -8 -3 -4
-22z"/>
<path d="M3140 1701 c0 -5 5 -13 10 -16 6 -3 10 -2 10 4 0 5 -4 13 -10 16 -5
3 -10 2 -10 -4z"/>
<path d="M3365 2510 c3 -5 8 -10 11 -10 2 0 4 5 4 10 0 6 -5 10 -11 10 -5 0
-7 -4 -4 -10z"/>
<path d="M2895 2500 c3 -5 8 -10 11 -10 2 0 4 5 4 10 0 6 -5 10 -11 10 -5 0
-7 -4 -4 -10z"/>
<path d="M3186 2483 c-6 -14 -5 -15 5 -6 7 7 10 15 7 18 -3 3 -9 -2 -12 -12z"/>
<path d="M3763 2340 c1 -11 5 -20 9 -20 11 0 10 28 -1 35 -6 3 -9 -4 -8 -15z"/>
<path d="M3867 2343 c3 -6 11 -9 19 -6 8 3 14 -1 14 -11 0 -9 7 -16 15 -16 8
0 15 -4 15 -10 0 -5 7 -7 15 -4 10 4 18 -3 25 -20 12 -33 20 -33 18 -1 -1 14
-7 25 -13 25 -5 0 -19 13 -30 29 -15 23 -26 29 -51 28 -20 -1 -30 -6 -27 -14z
m70 -19 c-3 -3 -12 -4 -19 -1 -8 3 -5 6 6 6 11 1 17 -2 13 -5z"/>
<path d="M3600 2336 c0 -2 7 -6 15 -10 8 -3 15 -1 15 4 0 6 -7 10 -15 10 -8 0
-15 -2 -15 -4z"/>
<path d="M3698 2321 c3 -9 1 -12 -6 -7 -7 4 -12 2 -12 -4 0 -7 -6 -10 -12 -8
-7 3 -21 -4 -30 -14 -10 -10 -14 -18 -9 -18 6 0 13 5 16 10 3 6 14 10 23 10 9
0 30 11 45 24 l28 24 -24 -2 c-17 -1 -23 -6 -19 -15z"/>
<path d="M4000 2318 c0 -10 5 -18 10 -18 6 0 10 -4 10 -10 0 -5 -7 -7 -15 -4
-12 5 -13 2 -7 -17 5 -13 15 -25 22 -27 7 -3 10 0 6 7 -4 6 -3 11 3 11 5 0 13
-4 16 -10 3 -5 14 -10 23 -9 11 0 12 2 4 6 -6 2 -10 9 -6 14 3 5 2 9 -3 8 -18
-3 -33 2 -33 10 0 6 12 6 32 0 42 -12 43 -12 28 6 -7 8 -24 15 -38 15 -13 0
-31 8 -38 18 -13 16 -13 16 -14 0z"/>
<path d="M3495 2310 c-3 -5 -1 -10 4 -10 6 0 11 5 11 10 0 6 -2 10 -4 10 -3 0
-8 -4 -11 -10z"/>
<path d="M3783 2286 c-7 -24 -14 -30 -31 -29 -12 2 -22 -2 -22 -7 0 -16 47
-11 54 5 3 8 15 15 26 15 21 0 27 14 10 25 -6 4 -8 10 -6 14 3 4 -1 8 -8 8 -8
0 -18 -14 -23 -31z"/>
<path d="M3850 2306 c0 -8 5 -18 10 -21 6 -3 10 3 10 14 0 12 -4 21 -10 21 -5
0 -10 -6 -10 -14z"/>
<path d="M3737 2290 c3 -11 7 -20 8 -20 1 0 5 9 8 20 3 12 0 20 -8 20 -8 0
-11 -8 -8 -20z"/>
<path d="M3450 2290 c1 -17 28 -56 34 -49 3 3 -4 18 -14 34 -11 17 -20 23 -20
15z"/>
<path d="M3648 2266 c-22 -16 -23 -26 -4 -26 7 0 16 9 19 20 3 11 4 20 4 20
-1 0 -10 -7 -19 -14z"/>
<path d="M3495 2260 c3 -5 8 -10 11 -10 2 0 4 5 4 10 0 6 -5 10 -11 10 -5 0
-7 -4 -4 -10z"/>
<path d="M3853 2252 c0 -11 5 -18 9 -16 17 11 7 -26 -9 -36 -17 -11 -17 -11 0
-6 9 3 17 1 17 -5 0 -6 5 -7 10 -4 12 7 4 40 -16 69 -13 18 -13 18 -11 -2z"/>
<path d="M4110 2243 c0 -15 6 -23 18 -23 15 -1 15 -2 -2 -15 -16 -12 -17 -15
-4 -15 22 0 48 32 30 37 -6 3 -9 10 -6 15 5 7 2 8 -6 3 -7 -4 -16 -2 -21 6 -6
10 -9 8 -9 -8z"/>
<path d="M3609 2228 c5 -13 16 -25 26 -26 9 -2 15 0 12 5 -3 4 5 8 17 8 16 0
22 -5 19 -16 -3 -9 1 -20 8 -24 9 -6 11 -2 7 13 -4 12 -2 22 4 22 5 0 3 7 -5
15 -11 10 -25 13 -46 9 -20 -4 -31 -2 -31 5 0 6 -4 11 -10 11 -6 0 -6 -9 -1
-22z"/>
<path d="M4155 2200 c-8 -13 3 -30 20 -30 8 0 17 -12 20 -27 8 -36 21 -59 33
-56 5 1 8 -9 6 -23 -1 -14 0 -23 3 -20 4 3 12 1 20 -5 10 -9 13 -8 13 1 0 8 3
11 6 8 3 -4 5 -8 3 -10 -1 -1 3 -13 9 -25 9 -17 9 -22 -3 -27 -13 -5 -13 -9
-3 -25 12 -19 28 -19 28 0 0 6 -4 7 -10 4 -16 -10 -12 11 5 25 22 18 3 77 -42
130 -47 56 -75 80 -85 74 -7 -4 -8 -3 -4 4 4 7 3 12 -3 12 -5 0 -13 -4 -16
-10z m80 -70 c3 -5 1 -10 -4 -10 -6 0 -11 5 -11 10 0 6 2 10 4 10 3 0 8 -4 11
-10z m38 -57 c-5 -11 -8 -12 -13 -2 -5 7 -6 19 -3 26 5 11 8 12 13 2 5 -7 6
-19 3 -26z"/>
<path d="M3818 2173 c7 -3 16 -2 19 1 4 3 -2 6 -13 5 -11 0 -14 -3 -6 -6z"/>
<path d="M3789 2137 c10 -13 10 -17 1 -17 -9 0 -10 -3 -1 -13 6 -8 8 -17 4
-21 -4 -4 0 -4 10 0 18 6 24 24 8 24 -5 0 -8 7 -7 16 0 9 -6 19 -14 22 -13 5
-13 3 -1 -11z"/>
<path d="M4170 2105 c0 -8 2 -15 4 -15 2 0 6 7 10 15 3 8 1 15 -4 15 -6 0 -10
-7 -10 -15z"/>
<path d="M4154 2056 c-3 -9 -10 -13 -15 -10 -5 3 -9 -7 -10 -23 0 -25 -1 -26
-9 -8 -7 17 -9 17 -9 3 -1 -10 8 -22 20 -29 19 -10 20 -9 14 13 -7 22 -7 23
12 5 20 -17 20 -17 16 20 -5 44 -10 52 -19 29z"/>
<path d="M3943 2018 c3 -20 23 -37 54 -48 26 -9 27 -9 9 5 -11 8 -23 15 -27
15 -4 0 -11 9 -14 20 -7 21 -27 28 -22 8z"/>
<path d="M4205 2020 c-3 -5 -1 -10 4 -10 6 0 11 5 11 10 0 6 -2 10 -4 10 -3 0
-8 -4 -11 -10z"/>
<path d="M4000 1996 c14 -8 29 -12 34 -8 10 6 -20 20 -44 21 -8 0 -4 -6 10
-13z"/>
<path d="M4060 1990 c-8 -5 -12 -12 -9 -15 4 -3 12 1 19 10 14 17 11 19 -10 5z"/>
<path d="M3810 1988 c13 -14 49 -27 54 -20 3 5 0 9 -7 9 -7 0 -21 4 -32 8 -11
5 -18 6 -15 3z"/>
<path d="M3892 1982 c-15 -5 -16 -68 -1 -77 6 -4 9 -1 8 6 -1 8 1 22 6 32 7
16 10 14 36 -14 18 -20 34 -29 44 -26 50 20 -40 97 -93 79z"/>
<path d="M2296 1953 c-6 -14 -5 -15 5 -6 7 7 10 15 7 18 -3 3 -9 -2 -12 -12z"/>
<path d="M3780 1961 c0 -5 8 -19 18 -31 13 -16 25 -21 47 -18 l30 5 -32 8
c-23 5 -33 13 -33 26 0 11 -7 19 -15 19 -8 0 -15 -4 -15 -9z"/>
<path d="M4290 1926 c0 -2 7 -6 15 -10 8 -3 15 -1 15 4 0 6 -7 10 -15 10 -8 0
-15 -2 -15 -4z"/>
<path d="M3888 1883 c6 -2 18 -2 25 0 6 3 1 5 -13 5 -14 0 -19 -2 -12 -5z"/>
</g>
</svg>
